<?xml version="1.0" encoding="iso-8859-1"?>
<!-- Uploaded to: SVG Repo, www.svgrepo.com, Generator: SVG Repo Mixer Tools -->
<svg version="1.1" id="Layer_1" xmlns="http://www.w3.org/2000/svg" xmlns:xlink="http://www.w3.org/1999/xlink" 
	 viewBox="0 0 512 512" xml:space="preserve">
<path style="fill:#FFCCCC;" d="M255.999,63.405L288.031,43.8c-5.167-21.096-17.558-35.963-32.032-35.963
	S229.134,22.704,223.967,43.8L255.999,63.405z"/>
<path id="SVGCleanerId_0" style="fill:#FFBAC5;" d="M243.414,148.036c-26.458,0-47.983-21.336-47.983-47.562V32.641
	c0-2.152,1.762-3.899,3.933-3.899l117.201,71.732c0,26.225-21.524,47.562-47.982,47.562H243.414z"/>
<path id="SVGCleanerId_1" style="fill:#FFDEDE;" d="M268.584,148.036c26.458,0,47.982-21.336,47.982-47.562V32.641
	c0-2.152-1.762-3.899-3.933-3.899l-117.201,71.732c0,26.225,21.525,47.562,47.982,47.562H268.584z"/>
<g>
	<path id="SVGCleanerId_0_1_" style="fill:#FFBAC5;" d="M243.414,148.036c-26.458,0-47.983-21.336-47.983-47.562V32.641
		c0-2.152,1.762-3.899,3.933-3.899l117.201,71.732c0,26.225-21.524,47.562-47.982,47.562H243.414z"/>
</g>
<g>
	<path id="SVGCleanerId_1_1_" style="fill:#FFDEDE;" d="M268.584,148.036c26.458,0,47.982-21.336,47.982-47.562V32.641
		c0-2.152-1.762-3.899-3.933-3.899l-117.201,71.732c0,26.225,21.525,47.562,47.982,47.562H268.584z"/>
</g>
<path style="fill:#5D9341;" d="M273.303,219.037h-34.609c-7.257,0-14.236-1.185-20.772-3.339
	c2.325,17.612,17.511,31.214,35.914,31.214h4.326c18.402,0,33.588-13.602,35.913-31.214
	C287.539,217.852,280.56,219.037,273.303,219.037z"/>
<path style="fill:#FFCCCC;" d="M238.694,219.037c-36.379,0-65.975-29.337-65.975-65.396V60.369c0-2.96,2.422-5.36,5.408-5.36
	l161.151,98.632c0,36.06-29.596,65.396-65.975,65.396H238.694z"/>
<path style="fill:#8EBA3F;" d="M235.418,329.483c-0.941,0.933-2.108,1.643-3.416,2.048c-19.083,5.916-39.709,0.897-53.828-13.099
	c-14.12-13.996-19.182-34.441-13.214-53.357c0.409-1.296,1.125-2.451,2.067-3.384s2.108-1.644,3.416-2.049
	c19.082-5.916,39.707-0.898,53.828,13.099c14.119,13.995,19.182,34.44,13.215,53.356
	C237.076,327.394,236.359,328.55,235.418,329.483z"/>
<path style="opacity:0.1;enable-background:new    ;" d="M199.578,318.434c-14.12-13.996-19.182-34.441-13.214-53.357
	c0.409-1.296,1.125-2.451,2.067-3.384c0.941-0.933,2.108-1.644,3.415-2.049c1.771-0.549,3.556-1.003,5.347-1.366
	c-8.712-1.767-17.896-1.379-26.749,1.366c-1.308,0.405-2.474,1.116-3.416,2.049c-0.941,0.933-1.658,2.089-2.067,3.384
	c-5.968,18.916-0.905,39.36,13.214,53.357c12.808,12.697,30.972,18.005,48.481,14.464
	C216.586,330.856,207.147,325.937,199.578,318.434z"/>
<path style="fill:#B7ED69;" d="M276.579,382.208c-0.941-0.933-1.657-2.09-2.067-3.385c-5.967-18.916-0.905-39.36,13.215-53.357
	c14.12-13.996,34.745-19.015,53.828-13.099c1.307,0.405,2.473,1.116,3.415,2.049c0.941,0.933,1.658,2.089,2.067,3.385
	c5.968,18.916,0.906,39.36-13.215,53.357c-14.119,13.995-34.744,19.015-53.828,13.1
	C278.688,383.852,277.521,383.141,276.579,382.208z"/>
<rect x="106.243" y="100.249" transform="matrix(-0.7071 -0.7071 0.7071 -0.7071 126.0901 283.94)" style="fill:#FFDC97;" width="31.215" height="31.214"/>
<g>
	<path style="fill:#FFED84;" d="M130.348,191.48c-15.794,10.176-24.043,18.426-34.218,34.218
		c-10.176-15.793-18.426-24.042-34.218-34.218c15.793-10.175,24.042-18.424,34.218-34.217
		C106.305,173.056,114.554,181.304,130.348,191.48z"/>
	
		<rect x="374.54" y="100.256" transform="matrix(0.7071 -0.7071 0.7071 0.7071 32.3444 309.8113)" style="fill:#FFED84;" width="31.215" height="31.214"/>
</g>
<path style="fill:#FFDC97;" d="M381.65,191.48c15.794,10.176,24.043,18.426,34.218,34.218
	c10.176-15.793,18.426-24.042,34.218-34.218c-15.793-10.175-24.042-18.424-34.218-34.217
	C405.693,173.056,397.444,181.304,381.65,191.48z"/>
<path style="fill:#FFBAC5;" d="M273.303,219.037c36.379,0,65.975-29.337,65.975-65.396V60.369c0-2.96-2.422-5.36-5.407-5.36
	L172.72,153.641c0,36.06,29.596,65.396,65.975,65.396H273.303z"/>
<path d="M354.511,315.445c-0.782-2.48-2.173-4.76-4.024-6.594c-1.844-1.828-4.13-3.201-6.612-3.969
	c-11.703-3.628-24.065-3.73-35.752-0.294c-4.152,1.22-6.53,5.576-5.309,9.728c1.22,4.152,5.575,6.524,9.729,5.309
	c8.717-2.562,17.946-2.484,26.692,0.228c0.084,0.026,0.157,0.069,0.216,0.128c0.052,0.052,0.09,0.112,0.111,0.178
	c5.081,16.104,0.768,33.513-11.258,45.432c-9.855,9.77-23.43,14.408-36.964,13.018l18.745-18.581
	c3.074-3.047,3.096-8.009,0.049-11.083c-3.048-3.074-8.01-3.095-11.082-0.049l-18.901,18.736
	c-1.421-13.395,3.244-26.839,13.094-36.602c3.074-3.047,3.096-8.008,0.049-11.082c-3.048-3.074-8.009-3.095-11.083-0.049
	c-16.107,15.966-21.944,39.246-15.297,60.856l-3.077,3.05V254.387c18.087-2.32,32.759-15.576,37.078-32.85
	c27.058-10.871,46.201-37.2,46.201-67.897V60.369c0-7.277-5.941-13.197-13.244-13.197c-1.444,0-2.86,0.399-4.091,1.153l-4.296,2.629
	V32.641c0-6.47-5.28-11.735-11.77-11.735c-1.444,0-2.86,0.399-4.091,1.153l-16.877,10.33C285.466,12.872,271.886,0,255.999,0
	c-4.857,0-9.606,1.21-14.114,3.594c-3.826,2.024-5.286,6.767-3.262,10.592c2.025,3.825,6.766,5.284,10.592,3.262
	c2.227-1.178,4.509-1.775,6.785-1.775c9.49,0,18.196,10.364,22.964,25.151L255.999,54.88l-23.032-14.098
	c0.802-2.519,1.722-4.929,2.768-7.187c1.819-3.927,0.11-8.586-3.817-10.405c-3.928-1.822-8.586-0.111-10.405,3.817
	c-0.809,1.746-1.546,3.552-2.235,5.397l-16.905-10.347c-1.231-0.753-2.647-1.153-4.091-1.153c-6.49,0-11.77,5.264-11.77,11.735
	v18.313l-4.296-2.629c-1.231-0.753-2.647-1.153-4.091-1.153c-7.303,0-13.245,5.92-13.245,13.197v93.271
	c0,30.697,19.144,57.026,46.201,67.897c4.32,17.272,18.991,30.529,37.078,32.85v76.694l-3.077-3.051
	c6.647-21.608,0.81-44.888-15.297-60.855c-11.587-11.486-26.957-17.81-43.28-17.81c-6.223,0-12.409,0.939-18.383,2.791
	c-2.483,0.769-4.77,2.142-6.614,3.97c-1.851,1.834-3.242,4.115-4.023,6.592c-6.856,21.728-1.043,45.21,15.171,61.281
	c11.586,11.484,26.956,17.81,43.28,17.81c6.111,0,12.184-0.911,18.061-2.699l14.164,14.039v151.014c0,4.328,3.509,7.837,7.837,7.837
	s7.837-3.509,7.837-7.837v-98.287l14.164-14.039c5.958,1.811,12.039,2.7,18.065,2.7c15.994-0.001,31.582-6.221,43.275-17.812
	C355.554,360.652,361.366,337.171,354.511,315.445z M231.847,314.909l-18.901-18.736c-3.073-3.047-8.035-3.025-11.083,0.049
	c-3.047,3.073-3.025,8.035,0.049,11.082l18.747,18.582c-1.567,0.161-3.142,0.249-4.721,0.249c-12.163,0-23.615-4.712-32.246-13.268
	c-12.026-11.92-16.339-29.329-11.258-45.434c0.021-0.065,0.057-0.124,0.11-0.177c0.06-0.06,0.133-0.102,0.218-0.13
	c4.471-1.387,9.096-2.089,13.744-2.089c12.162,0,23.614,4.712,32.246,13.269C228.603,288.071,233.269,301.516,231.847,314.909z
	 M202.188,40.321l38.799,23.747l-16.523,10.114l-22.276-13.634V40.321z M180.556,65.683l60.431,36.986l-60.431,36.986V65.683z
	 M180.716,157.934l102.361-62.65c3.692-2.259,4.853-7.083,2.593-10.775c-2.259-3.693-7.082-4.853-10.775-2.593l-18.897,11.566
	l-16.523-10.113l70.335-43.049v20.226l-10.883,6.661c-3.692,2.26-4.853,7.083-2.593,10.776c2.259,3.691,7.082,4.853,10.776,2.592
	l24.332-14.892v87.956c0,31.739-26.081,57.559-58.138,57.559h-34.609C208.095,211.2,182.941,187.676,180.716,157.934z
	 M230.083,226.358c2.827,0.327,5.697,0.515,8.611,0.515h34.609c2.914,0,5.785-0.187,8.612-0.515
	c-5.077,7.652-13.826,12.716-23.753,12.716h-4.326C243.909,239.075,235.161,234.01,230.083,226.358z"/>
<path d="M390.138,145.763c2.005,0,4.011-0.765,5.541-2.295l22.073-22.072c1.469-1.469,2.296-3.463,2.296-5.541
	s-0.825-4.072-2.296-5.541l-22.071-22.072c-3.06-3.062-8.023-3.059-11.083-0.001l-22.073,22.071
	c-1.469,1.47-2.296,3.463-2.296,5.542c0,2.078,0.825,4.071,2.296,5.541l22.071,22.071
	C386.126,144.998,388.133,145.763,390.138,145.763z M390.139,104.866l10.989,10.989l-10.99,10.989l-10.989-10.989L390.139,104.866z"
	/>
<path d="M454.331,184.892c-14.855-9.571-22.302-17.018-31.875-31.875c-1.443-2.239-3.925-3.592-6.588-3.592
	c-2.663,0-5.145,1.353-6.588,3.592c-9.571,14.856-17.019,22.303-31.875,31.874c-2.239,1.442-3.592,3.924-3.592,6.587
	s1.353,5.145,3.592,6.588c14.856,9.572,22.304,17.02,31.876,31.875c1.443,2.239,3.924,3.592,6.588,3.592
	c2.663,0,5.145-1.353,6.588-3.591c9.572-14.855,17.02-22.303,31.876-31.876c2.239-1.443,3.592-3.925,3.592-6.588
	C457.923,188.816,456.57,186.335,454.331,184.892z M415.868,211.913c-6.118-8.166-12.266-14.314-20.432-20.432
	c8.165-6.117,14.315-12.266,20.432-20.432c6.117,8.166,12.268,14.315,20.432,20.432
	C428.134,197.598,421.986,203.747,415.868,211.913z"/>
<path d="M127.399,88.242c-3.062-3.061-8.023-3.059-11.082,0.001l-22.071,22.071c-1.47,1.469-2.296,3.462-2.296,5.541
	c0,2.078,0.825,4.072,2.296,5.541l22.073,22.072c1.53,1.53,3.536,2.295,5.541,2.295s4.011-0.765,5.541-2.296l22.071-22.071
	c1.47-1.47,2.296-3.463,2.296-5.541c0-2.078-0.825-4.072-2.296-5.542L127.399,88.242z M121.859,126.844l-10.99-10.989l10.989-10.989
	l10.99,10.989L121.859,126.844z"/>
<path d="M134.592,184.892c-14.856-9.571-22.303-17.018-31.875-31.874c-1.443-2.239-3.924-3.592-6.588-3.592
	c-2.663,0-5.145,1.353-6.588,3.592c-9.572,14.856-17.02,22.303-31.875,31.875c-2.239,1.442-3.592,3.924-3.592,6.587
	s1.353,5.145,3.592,6.588c14.855,9.572,22.303,17.02,31.876,31.876c1.443,2.239,3.925,3.591,6.588,3.591
	c2.663,0,5.145-1.353,6.588-3.592c9.571-14.855,17.019-22.302,31.876-31.875c2.239-1.443,3.592-3.925,3.592-6.588
	C138.185,188.815,136.831,186.335,134.592,184.892z M96.129,211.913c-6.117-8.166-12.266-14.315-20.432-20.432
	c8.164-6.117,14.315-12.266,20.432-20.432c6.117,8.166,12.267,14.315,20.432,20.432C108.395,197.598,102.246,203.746,96.129,211.913
	z"/>
<path style="opacity:0.1;enable-background:new    ;" d="M205.424,153.641V71.714l-27.296-16.706c-2.986,0-5.408,2.4-5.408,5.36
	v93.271c0,36.06,29.596,65.396,65.975,65.396h32.704C235.019,219.037,205.424,189.7,205.424,153.641z"/>
</svg>